HIERARCHY
ROOT Hips
{
	OFFSET 0.00000 0.00000 0.00000
	CHANNELS 6 Xposition Yposition Zposition Zrotation Yrotation Xrotation 
	JOINT LHipJoint
	{
		OFFSET 0 0 0
		CHANNELS 3 Zrotation Yrotation Xrotation
		JOINT LeftHip
		{
			OFFSET 3.13874 -1.57224 1.49786
			CHANNELS 3 Zrotation Yrotation Xrotation
			JOINT LeftKnee
			{
				OFFSET 2.10955 -5.79594 0.00000
				CHANNELS 3 Zrotation Yrotation Xrotation
				JOINT LeftAnkle
				{
					OFFSET 2.41843 -6.64458 0.00000
					CHANNELS 3 Zrotation Yrotation Xrotation
					JOINT LeftToe
					{
						OFFSET 0.04713 -0.12948 1.66229
						CHANNELS 3 Zrotation Yrotation Xrotation
						End Site
						{
							OFFSET 0.00000 -0.00000 0.85167
						}
					}
				}
			}
		}
	}
	JOINT RHipJoint
	{
		OFFSET 0 0 0
		CHANNELS 3 Zrotation Yrotation Xrotation
		JOINT RightHip
		{
			OFFSET -3.13988 -1.57224 1.49786
			CHANNELS 3 Zrotation Yrotation Xrotation
			JOINT RightKnee
			{
				OFFSET -2.15006 -5.90725 0.00000
				CHANNELS 3 Zrotation Yrotation Xrotation
				JOINT RightAnkle
				{
					OFFSET -2.34496 -6.44273 0.00000
					CHANNELS 3 Zrotation Yrotation Xrotation
					JOINT RightToe
					{
						OFFSET -0.08699 -0.23900 1.55223
						CHANNELS 3 Zrotation Yrotation Xrotation
						End Site
						{
							OFFSET -0.00000 -0.00000 0.80281
						}
					}
				}
			}
		}
	}
	JOINT lowerback
	{
		OFFSET 0 0 0
		CHANNELS 3 Zrotation Yrotation Xrotation
		JOINT Chest
		{
			OFFSET 0.01292 1.96517 -0.16495
			CHANNELS 3 Zrotation Yrotation Xrotation
			JOINT Chest2
			{
				OFFSET 0.02122 1.88666 0.19706
				CHANNELS 3 Zrotation Yrotation Xrotation
				JOINT lowerneck
				{
					OFFSET 0 0 0
					CHANNELS 3 Zrotation Yrotation Xrotation
					JOINT Neck
					{
						OFFSET -0.01683 1.81591 0.07903
						CHANNELS 3 Zrotation Yrotation Xrotation
						JOINT Head
						{
							OFFSET 0.00815 1.74013 -0.47700
							CHANNELS 3 Zrotation Yrotation Xrotation
							End Site
							{
								OFFSET -0.00204 1.83225 -0.16933
							}
						}
					}
				}
				JOINT LeftCollar
				{
					OFFSET 0 0 0
					CHANNELS 3 Zrotation Yrotation Xrotation
					JOINT LeftShoulder
					{
						OFFSET 3.38482 1.41533 0.19802
CHANNELS 3 Zrotation Xrotation Yrotation
						JOINT LeftElbow
						{
OFFSET 0 -4.327120 0.000000
CHANNELS 3 Zrotation Xrotation Yrotation
							JOINT LeftWrist
							{
OFFSET 0 -3.285870 -0.000000
CHANNELS 3 Zrotation Xrotation Yrotation
								JOINT lhand
								{
									OFFSET 0 0 0
CHANNELS 3 Zrotation Xrotation Yrotation
									JOINT LFingers
									{
OFFSET 0 -0.433160 -0.000000
CHANNELS 3 Zrotation Xrotation Yrotation
										End Site
										{
OFFSET 0 -0.349220 -0.000000
										}
									}
								}
								JOINT LThumb
								{
OFFSET 0 0.000000 0.000000
CHANNELS 3 Zrotation Xrotation Yrotation
									End Site
									{
OFFSET 0 -0.354560 0.354560
									}
								}
							}
						}
					}
				}
				JOINT RightCollar
				{
					OFFSET 0 0 0
					CHANNELS 3 Zrotation Yrotation Xrotation
					JOINT RightShoulder
					{
						OFFSET -3.09725 1.62858 -0.14144
CHANNELS 3 Zrotation Xrotation Yrotation
						JOINT RightElbow
						{
OFFSET 0 -4.291040 0.000000
CHANNELS 3 Zrotation Xrotation Yrotation
							JOINT RightWrist
							{
OFFSET 0 -3.227200 -0.000000
CHANNELS 3 Zrotation Xrotation Yrotation
								JOINT rhand
								{
									OFFSET 0 0 0
CHANNELS 3 Zrotation Xrotation Yrotation
									JOINT RFingers
									{
OFFSET 0 -0.543620 -0.000000
CHANNELS 3 Zrotation Xrotation Yrotation
										End Site
										{
OFFSET 0 -0.438280 -0.000000
										}
									}
								}
								JOINT RThumb
								{
OFFSET 0 0.000000 0.000000
CHANNELS 3 Zrotation Xrotation Yrotation
									End Site
									{
OFFSET 0 -0.444970 0.444970
									}
								}
							}
						}
					}
				}
			}
		}
	}
}
MOTION
Frames: 6
Frame Time: 0.008333333333333333
-12.054213 15.956657 3.422730 -314.693721 -94.793611 326.033082 0.000000 0.000000 0.000000 -12.186192 -27.824050 -24.677868 0.492249 4.497896 12.481877 0.341705 -6.896510 -10.764256 0.079564 -1.815962 -4.997353 0.000000 0.000000 0.000000 47.260053 28.271483 29.158457 -0.425303 4.185173 -11.598203 -9.104712 -17.940446 -63.244098 -2.054187 -8.978068 25.726773 2.458382 3.612871 6.917535 1.995311 5.240055 -10.356653 -0.144889 2.194951 -15.356467 -1.195745 -1.653684 -21.236582 -1.684430 -1.616485 23.276750 -0.677295 -1.123308 11.050492 0.000000 0.000000 0.000000 10.545431 21.353981 -8.428477 18.638773 -28.966935 4.854857 34.047183 22.741626 -25.717678 0.000000 0.000000 0.000000 -7.125000 0.000000 0.000000 5.105052 60.076646 -1.879288 0.000000 0.000000 0.000000 -20.075989 20.288752 48.645507 -35.832238 -45.390427 -15.405170 -23.235176 -20.554375 29.103154 0.000000 0.000000 0.000000 7.125000 0.000000 0.000000 9.030509 60.961644 -3.531496
-12.001412 15.952851 3.404857 -316.593705 -95.256062 327.986628 0.000000 0.000000 0.000000 -11.618331 -27.670365 -24.811095 0.472406 4.407918 12.227214 0.371048 -6.888746 -11.155381 0.064267 -1.633592 -4.494171 0.000000 0.000000 0.000000 47.586206 28.630719 29.266331 -0.438184 4.247486 -11.773903 -9.041552 -17.946898 -63.069520 -2.051634 -8.972802 25.710310 2.624314 3.642732 6.890180 2.007749 5.301578 -10.366242 -0.232369 2.204675 -15.335914 -1.328159 -1.483988 -21.480711 -1.174665 -1.472716 23.751122 -0.454719 -1.009405 11.281110 0.000000 0.000000 0.000000 10.729757 20.961685 -8.904304 18.889508 -29.280767 4.976879 34.428243 22.682768 -25.727463 0.000000 0.000000 0.000000 -7.125000 0.000000 0.000000 5.570114 60.186243 -2.065516 0.000000 0.000000 0.000000 -19.950188 20.567867 48.721588 -34.587311 -44.509570 -14.525127 -23.491593 -20.428680 28.495169 0.000000 0.000000 0.000000 7.125000 0.000000 0.000000 8.393349 60.405746 -3.168008
-11.948033 15.949353 3.387143 -319.126047 -95.641283 330.623456 0.000000 0.000000 0.000000 -11.160146 -27.522141 -25.022211 0.458469 4.343514 12.045149 0.399970 -6.896123 -11.533442 0.052607 -1.480177 -4.071088 0.000000 0.000000 0.000000 47.738661 29.028390 29.292630 -0.447349 4.291129 -11.897251 -9.002698 -17.767476 -62.892125 -2.099987 -9.070884 26.017637 2.623170 3.650392 6.807423 2.025340 5.306191 -10.390056 -0.207681 2.207218 -15.313753 -1.399683 -1.293636 -21.754865 -0.772148 -1.294978 24.303731 -0.274919 -0.889467 11.546497 0.000000 0.000000 0.000000 10.830967 20.583198 -9.252644 19.223036 -29.692944 5.141809 34.226594 22.551463 -26.527860 0.000000 0.000000 0.000000 -7.125000 0.000000 0.000000 5.146549 61.027117 -2.009742 0.000000 0.000000 0.000000 -19.902278 20.742594 48.880744 -33.360521 -43.602535 -13.671062 -23.962673 -19.926596 28.210325 0.000000 0.000000 0.000000 7.125000 0.000000 0.000000 7.705417 60.229109 -2.872813
-11.896926 15.946735 3.372360 -321.203265 -95.950796 332.786838 0.000000 0.000000 0.000000 -10.794964 -27.505838 -25.186936 0.448417 4.296039 11.911088 0.441277 -6.872133 -12.049579 0.048130 -1.415808 -3.893524 0.000000 0.000000 0.000000 47.820685 29.308507 29.351762 -0.465088 4.374420 -12.132512 -8.975498 -17.512787 -62.718616 -2.211662 -9.293558 26.718012 2.601798 3.641269 6.682233 2.045276 5.283468 -10.378399 -0.160713 2.202065 -15.222775 -1.039317 -1.170050 -21.614131 -1.067047 -1.168689 24.313783 -0.423087 -0.839374 11.517776 0.000000 0.000000 0.000000 10.970434 20.568077 -10.175862 20.073690 -30.730202 5.569332 33.498511 21.295249 -27.393044 0.000000 0.000000 0.000000 -7.125000 0.000000 0.000000 4.013329 61.792283 -1.639999 0.000000 0.000000 0.000000 -19.851509 20.811271 48.906002 -32.170450 -42.681430 -12.856647 -24.045542 -19.036154 28.681014 0.000000 0.000000 0.000000 7.125000 0.000000 0.000000 7.863383 60.732152 -3.026218
-11.850787 15.944837 3.361423 -322.177045 -96.249972 333.835563 0.000000 0.000000 0.000000 -10.381703 -27.680973 -25.199647 0.430271 4.209219 11.666123 0.479140 -6.911608 -12.516113 0.032755 -1.161201 -3.192607 0.000000 0.000000 0.000000 47.918736 29.475955 29.456810 -0.498534 4.526146 -12.561936 -8.885232 -17.615974 -62.501994 -2.269807 -9.406609 27.075816 2.730516 3.623331 6.546464 2.059362 5.267475 -10.366341 -0.203495 2.182808 -15.109840 -0.366029 -0.995900 -21.227788 -1.716297 -0.973806 23.835662 -0.734727 -0.769328 11.254744 0.000000 0.000000 0.000000 11.089226 20.399580 -10.935527 20.757587 -31.542365 5.923534 33.430088 19.815301 -26.486795 0.000000 0.000000 0.000000 -7.125000 0.000000 0.000000 4.165370 60.771834 -1.601367 0.000000 0.000000 0.000000 -19.682543 20.830586 48.683407 -31.051617 -41.773786 -12.105698 -23.514428 -18.194113 29.427283 0.000000 0.000000 0.000000 7.125000 0.000000 0.000000 8.900415 61.360204 -3.565065
-11.805112 15.943689 3.349726 -323.360469 -96.522810 335.078464 0.000000 0.000000 0.000000 -10.015455 -27.837017 -25.158963 0.412009 4.120010 11.414698 0.510096 -7.015640 -12.898814 0.024801 -1.014845 -2.789611 0.000000 0.000000 0.000000 48.021790 29.647250 29.546255 -0.524884 4.642684 -12.892238 -8.766741 -17.841014 -62.252542 -2.274724 -9.416294 27.106434 2.801788 3.599424 6.464264 2.061502 5.237246 -10.376809 -0.229172 2.160591 -15.063488 -0.188259 -0.797497 -21.087282 -1.651831 -0.773334 23.736576 -0.707438 -0.652781 11.190611 0.000000 0.000000 0.000000 11.150238 20.158944 -11.494965 21.324039 -32.202911 6.222530 33.673272 18.916527 -25.559346 0.000000 0.000000 0.000000 -7.125000 0.000000 0.000000 4.678347 59.802163 -1.688243 0.000000 0.000000 0.000000 -19.466278 20.827522 48.439892 -29.940326 -40.836119 -11.372788 -23.189557 -17.592385 29.477989 0.000000 0.000000 0.000000 7.125000 0.000000 0.000000 9.298800 61.331247 -3.715565
